<mxfile host="app.diagrams.net" modified="2023-07-04T13:29:17.563Z" agent="Mozilla/5.0 (Windows NT 10.0; Win64; x64) AppleWebKit/537.36 (KHTML, like Gecko) Chrome/114.0.0.0 Safari/537.36" etag="PKyEbABjZlye0yqk9-Db" version="21.3.2" type="github">
  <diagram name="Page-1" id="SEodM_-SOIGTDsd-5V2K">
    <mxGraphModel dx="1687" dy="2027" grid="1" gridSize="10" guides="1" tooltips="1" connect="1" arrows="1" fold="1" page="1" pageScale="1" pageWidth="850" pageHeight="1100" math="0" shadow="0">
      <root>
        <mxCell id="0" />
        <mxCell id="1" parent="0" />
        <mxCell id="YgXdw1BSDBlJb3hZt-lw-41" style="edgeStyle=orthogonalEdgeStyle;rounded=0;orthogonalLoop=1;jettySize=auto;html=1;entryX=0.25;entryY=1;entryDx=0;entryDy=0;endArrow=ERmany;endFill=0;" edge="1" parent="1" source="YgXdw1BSDBlJb3hZt-lw-1" target="YgXdw1BSDBlJb3hZt-lw-8">
          <mxGeometry relative="1" as="geometry" />
        </mxCell>
        <mxCell id="YgXdw1BSDBlJb3hZt-lw-54" style="edgeStyle=orthogonalEdgeStyle;rounded=0;orthogonalLoop=1;jettySize=auto;html=1;entryX=0;entryY=0.75;entryDx=0;entryDy=0;exitX=1;exitY=0.75;exitDx=0;exitDy=0;endArrow=baseDash;endFill=0;" edge="1" parent="1" source="YgXdw1BSDBlJb3hZt-lw-1" target="YgXdw1BSDBlJb3hZt-lw-23">
          <mxGeometry relative="1" as="geometry" />
        </mxCell>
        <mxCell id="YgXdw1BSDBlJb3hZt-lw-57" style="edgeStyle=orthogonalEdgeStyle;rounded=0;orthogonalLoop=1;jettySize=auto;html=1;endArrow=ERmany;endFill=0;" edge="1" parent="1" source="YgXdw1BSDBlJb3hZt-lw-1" target="YgXdw1BSDBlJb3hZt-lw-27">
          <mxGeometry relative="1" as="geometry">
            <Array as="points">
              <mxPoint x="325" y="210" />
            </Array>
          </mxGeometry>
        </mxCell>
        <mxCell id="YgXdw1BSDBlJb3hZt-lw-61" style="edgeStyle=orthogonalEdgeStyle;rounded=0;orthogonalLoop=1;jettySize=auto;html=1;exitX=0.5;exitY=1;exitDx=0;exitDy=0;entryX=0.5;entryY=0;entryDx=0;entryDy=0;endArrow=ERmany;endFill=0;" edge="1" parent="1" source="YgXdw1BSDBlJb3hZt-lw-1" target="YgXdw1BSDBlJb3hZt-lw-59">
          <mxGeometry relative="1" as="geometry" />
        </mxCell>
        <mxCell id="YgXdw1BSDBlJb3hZt-lw-1" value="User" style="swimlane;whiteSpace=wrap;html=1;" vertex="1" parent="1">
          <mxGeometry x="5" y="30" width="200" height="200" as="geometry" />
        </mxCell>
        <mxCell id="YgXdw1BSDBlJb3hZt-lw-10" value="ID&lt;br&gt;FIRST_NAME&lt;br&gt;LAST_NAME&lt;br&gt;USERNAME&lt;br&gt;PASSWORD&lt;br&gt;TEL_NO&lt;br&gt;ADDRESS_ID" style="text;html=1;align=center;verticalAlign=middle;resizable=0;points=[];autosize=1;strokeColor=none;fillColor=none;" vertex="1" parent="YgXdw1BSDBlJb3hZt-lw-1">
          <mxGeometry y="30" width="100" height="110" as="geometry" />
        </mxCell>
        <mxCell id="YgXdw1BSDBlJb3hZt-lw-40" style="edgeStyle=orthogonalEdgeStyle;rounded=0;orthogonalLoop=1;jettySize=auto;html=1;entryX=0.25;entryY=0;entryDx=0;entryDy=0;endArrow=ERmany;endFill=0;" edge="1" parent="1" source="YgXdw1BSDBlJb3hZt-lw-2" target="YgXdw1BSDBlJb3hZt-lw-8">
          <mxGeometry relative="1" as="geometry" />
        </mxCell>
        <mxCell id="YgXdw1BSDBlJb3hZt-lw-42" style="edgeStyle=orthogonalEdgeStyle;rounded=0;orthogonalLoop=1;jettySize=auto;html=1;entryX=0;entryY=0.5;entryDx=0;entryDy=0;exitX=0.5;exitY=0;exitDx=0;exitDy=0;endArrow=ERmany;endFill=0;" edge="1" parent="1" source="YgXdw1BSDBlJb3hZt-lw-2" target="YgXdw1BSDBlJb3hZt-lw-5">
          <mxGeometry relative="1" as="geometry" />
        </mxCell>
        <mxCell id="YgXdw1BSDBlJb3hZt-lw-2" value="Role" style="swimlane;whiteSpace=wrap;html=1;" vertex="1" parent="1">
          <mxGeometry x="5" y="-300" width="200" height="200" as="geometry" />
        </mxCell>
        <mxCell id="YgXdw1BSDBlJb3hZt-lw-7" value="ID&lt;br&gt;NAME" style="text;html=1;align=center;verticalAlign=middle;resizable=0;points=[];autosize=1;strokeColor=none;fillColor=none;" vertex="1" parent="YgXdw1BSDBlJb3hZt-lw-2">
          <mxGeometry y="25" width="60" height="40" as="geometry" />
        </mxCell>
        <mxCell id="YgXdw1BSDBlJb3hZt-lw-43" style="edgeStyle=orthogonalEdgeStyle;rounded=0;orthogonalLoop=1;jettySize=auto;html=1;entryX=0.25;entryY=0;entryDx=0;entryDy=0;endArrow=ERmany;endFill=0;" edge="1" parent="1" source="YgXdw1BSDBlJb3hZt-lw-3" target="YgXdw1BSDBlJb3hZt-lw-5">
          <mxGeometry relative="1" as="geometry" />
        </mxCell>
        <mxCell id="YgXdw1BSDBlJb3hZt-lw-3" value="Menu" style="swimlane;whiteSpace=wrap;html=1;" vertex="1" parent="1">
          <mxGeometry x="5" y="-600" width="200" height="200" as="geometry" />
        </mxCell>
        <mxCell id="YgXdw1BSDBlJb3hZt-lw-4" value="ID&lt;br&gt;NAME" style="text;html=1;align=center;verticalAlign=middle;resizable=0;points=[];autosize=1;strokeColor=none;fillColor=none;" vertex="1" parent="YgXdw1BSDBlJb3hZt-lw-3">
          <mxGeometry x="-5" y="30" width="60" height="40" as="geometry" />
        </mxCell>
        <mxCell id="YgXdw1BSDBlJb3hZt-lw-5" value="ROLE_MENU" style="swimlane;whiteSpace=wrap;html=1;" vertex="1" parent="1">
          <mxGeometry x="250" y="-460" width="200" height="200" as="geometry" />
        </mxCell>
        <mxCell id="YgXdw1BSDBlJb3hZt-lw-6" value="MENU_ID&lt;br&gt;ROLE_ID" style="text;html=1;align=center;verticalAlign=middle;resizable=0;points=[];autosize=1;strokeColor=none;fillColor=none;" vertex="1" parent="YgXdw1BSDBlJb3hZt-lw-5">
          <mxGeometry y="30" width="80" height="40" as="geometry" />
        </mxCell>
        <mxCell id="YgXdw1BSDBlJb3hZt-lw-8" value="USER_ROLE" style="swimlane;whiteSpace=wrap;html=1;" vertex="1" parent="1">
          <mxGeometry x="250" y="-150" width="200" height="200" as="geometry" />
        </mxCell>
        <mxCell id="YgXdw1BSDBlJb3hZt-lw-9" value="USER_ID&lt;br&gt;ROLE_ID" style="text;html=1;align=center;verticalAlign=middle;resizable=0;points=[];autosize=1;strokeColor=none;fillColor=none;" vertex="1" parent="YgXdw1BSDBlJb3hZt-lw-8">
          <mxGeometry y="30" width="80" height="40" as="geometry" />
        </mxCell>
        <mxCell id="YgXdw1BSDBlJb3hZt-lw-48" style="edgeStyle=orthogonalEdgeStyle;rounded=0;orthogonalLoop=1;jettySize=auto;html=1;entryX=0.5;entryY=1;entryDx=0;entryDy=0;endArrow=ERmany;endFill=0;" edge="1" parent="1" source="YgXdw1BSDBlJb3hZt-lw-11" target="YgXdw1BSDBlJb3hZt-lw-15">
          <mxGeometry relative="1" as="geometry" />
        </mxCell>
        <mxCell id="YgXdw1BSDBlJb3hZt-lw-50" style="edgeStyle=orthogonalEdgeStyle;rounded=0;orthogonalLoop=1;jettySize=auto;html=1;entryX=0.5;entryY=0;entryDx=0;entryDy=0;exitX=1;exitY=0.5;exitDx=0;exitDy=0;endArrow=ERmany;endFill=0;" edge="1" parent="1" source="YgXdw1BSDBlJb3hZt-lw-11" target="YgXdw1BSDBlJb3hZt-lw-21">
          <mxGeometry relative="1" as="geometry" />
        </mxCell>
        <mxCell id="YgXdw1BSDBlJb3hZt-lw-51" style="edgeStyle=orthogonalEdgeStyle;rounded=0;orthogonalLoop=1;jettySize=auto;html=1;endArrow=ERmany;endFill=0;entryX=0.5;entryY=0;entryDx=0;entryDy=0;exitX=0.75;exitY=1;exitDx=0;exitDy=0;" edge="1" parent="1" source="YgXdw1BSDBlJb3hZt-lw-11" target="YgXdw1BSDBlJb3hZt-lw-19">
          <mxGeometry relative="1" as="geometry">
            <Array as="points">
              <mxPoint x="630" y="-80" />
              <mxPoint x="740" y="-80" />
            </Array>
          </mxGeometry>
        </mxCell>
        <mxCell id="YgXdw1BSDBlJb3hZt-lw-11" value="ITEM" style="swimlane;whiteSpace=wrap;html=1;" vertex="1" parent="1">
          <mxGeometry x="480" y="-520" width="200" height="200" as="geometry" />
        </mxCell>
        <mxCell id="YgXdw1BSDBlJb3hZt-lw-12" value="ID&lt;br&gt;NAME&lt;br&gt;CATAGORY&lt;br&gt;TYPE&lt;br&gt;SELL_PRICE&lt;br&gt;BASE_PRICE&lt;br&gt;CURRENT_QUANTITY&lt;br&gt;ACTIVE" style="text;html=1;align=left;verticalAlign=middle;resizable=0;points=[];autosize=1;strokeColor=none;fillColor=none;" vertex="1" parent="YgXdw1BSDBlJb3hZt-lw-11">
          <mxGeometry x="10" y="30" width="150" height="130" as="geometry" />
        </mxCell>
        <mxCell id="YgXdw1BSDBlJb3hZt-lw-15" value="ITEM_MOVEMENT" style="swimlane;whiteSpace=wrap;html=1;" vertex="1" parent="1">
          <mxGeometry x="480" y="-800" width="200" height="200" as="geometry" />
        </mxCell>
        <mxCell id="YgXdw1BSDBlJb3hZt-lw-16" value="ID&lt;br&gt;ITEM_ID&lt;br&gt;MOVEMENT_TYPE&lt;br&gt;QTY&lt;br&gt;MOVEMENT_DATE&lt;br&gt;REMARK&lt;br&gt;" style="text;html=1;align=left;verticalAlign=middle;resizable=0;points=[];autosize=1;strokeColor=none;fillColor=none;" vertex="1" parent="YgXdw1BSDBlJb3hZt-lw-15">
          <mxGeometry x="20" y="50" width="130" height="100" as="geometry" />
        </mxCell>
        <mxCell id="YgXdw1BSDBlJb3hZt-lw-19" value="RECOMMEND_ITEM" style="swimlane;whiteSpace=wrap;html=1;" vertex="1" parent="1">
          <mxGeometry x="640" y="-50" width="200" height="200" as="geometry" />
        </mxCell>
        <mxCell id="YgXdw1BSDBlJb3hZt-lw-20" value="ID&lt;br&gt;ITEM_ID&lt;br&gt;RECOMMEND_CATAGORY&lt;br&gt;RECOMMEND_START_DATE&lt;br&gt;RECOMMEND_END_DATE&lt;br&gt;ACTIVE&lt;br&gt;DISPLAY_START_TIME&lt;br&gt;DISPLAY_END_TIME" style="text;html=1;align=left;verticalAlign=middle;resizable=0;points=[];autosize=1;strokeColor=none;fillColor=none;" vertex="1" parent="YgXdw1BSDBlJb3hZt-lw-19">
          <mxGeometry x="10" y="30" width="190" height="130" as="geometry" />
        </mxCell>
        <mxCell id="YgXdw1BSDBlJb3hZt-lw-21" value="PROMOTION" style="swimlane;whiteSpace=wrap;html=1;" vertex="1" parent="1">
          <mxGeometry x="640" y="-300" width="200" height="200" as="geometry" />
        </mxCell>
        <mxCell id="YgXdw1BSDBlJb3hZt-lw-22" value="ID&lt;br&gt;ITEM_ID&lt;br&gt;PROMOTION_NAME&lt;br&gt;SELL_PRICE&lt;br&gt;PROMOTION_PROCE&lt;br&gt;PROMOTION_QUANTITY&lt;br&gt;START_DATE&lt;br&gt;END_DATE&lt;br&gt;ACTIVE" style="text;html=1;align=left;verticalAlign=middle;resizable=0;points=[];autosize=1;strokeColor=none;fillColor=none;" vertex="1" parent="YgXdw1BSDBlJb3hZt-lw-21">
          <mxGeometry x="20" y="35" width="160" height="140" as="geometry" />
        </mxCell>
        <mxCell id="YgXdw1BSDBlJb3hZt-lw-45" style="edgeStyle=orthogonalEdgeStyle;rounded=0;orthogonalLoop=1;jettySize=auto;html=1;entryX=0.5;entryY=0;entryDx=0;entryDy=0;endArrow=ERone;endFill=0;" edge="1" parent="1" source="YgXdw1BSDBlJb3hZt-lw-23" target="YgXdw1BSDBlJb3hZt-lw-31">
          <mxGeometry relative="1" as="geometry" />
        </mxCell>
        <mxCell id="YgXdw1BSDBlJb3hZt-lw-53" style="edgeStyle=orthogonalEdgeStyle;rounded=0;orthogonalLoop=1;jettySize=auto;html=1;entryX=0.25;entryY=1;entryDx=0;entryDy=0;endArrow=ERmany;endFill=0;" edge="1" parent="1" source="YgXdw1BSDBlJb3hZt-lw-23" target="YgXdw1BSDBlJb3hZt-lw-11">
          <mxGeometry relative="1" as="geometry">
            <Array as="points">
              <mxPoint x="650" y="170" />
              <mxPoint x="530" y="170" />
            </Array>
          </mxGeometry>
        </mxCell>
        <mxCell id="YgXdw1BSDBlJb3hZt-lw-23" value="CART" style="swimlane;whiteSpace=wrap;html=1;startSize=23;" vertex="1" parent="1">
          <mxGeometry x="550" y="200" width="200" height="200" as="geometry" />
        </mxCell>
        <mxCell id="YgXdw1BSDBlJb3hZt-lw-24" value="ID&lt;br&gt;USER_ID&lt;br&gt;ITEM_ID&lt;br&gt;RECOMMEND_ID&lt;br&gt;PROMOTION_ID&lt;br&gt;CART_QUANTITY&lt;br&gt;CURRENT_PRICE&lt;br&gt;DISCOUNT&lt;br&gt;FINAL_PRICE" style="text;html=1;align=left;verticalAlign=middle;resizable=0;points=[];autosize=1;strokeColor=none;fillColor=none;" vertex="1" parent="YgXdw1BSDBlJb3hZt-lw-23">
          <mxGeometry x="10" y="30" width="130" height="140" as="geometry" />
        </mxCell>
        <mxCell id="YgXdw1BSDBlJb3hZt-lw-38" style="edgeStyle=orthogonalEdgeStyle;rounded=0;orthogonalLoop=1;jettySize=auto;html=1;entryX=0.25;entryY=1;entryDx=0;entryDy=0;endArrow=ERmany;endFill=0;" edge="1" parent="1" source="YgXdw1BSDBlJb3hZt-lw-25" target="YgXdw1BSDBlJb3hZt-lw-27">
          <mxGeometry relative="1" as="geometry">
            <Array as="points">
              <mxPoint x="236" y="620" />
              <mxPoint x="275" y="620" />
            </Array>
          </mxGeometry>
        </mxCell>
        <mxCell id="YgXdw1BSDBlJb3hZt-lw-25" value="VOUCHER" style="swimlane;whiteSpace=wrap;html=1;startSize=23;" vertex="1" parent="1">
          <mxGeometry x="136" y="630" width="200" height="200" as="geometry" />
        </mxCell>
        <mxCell id="YgXdw1BSDBlJb3hZt-lw-26" value="ID&lt;br&gt;NAME&lt;br&gt;DISCOUNT_PERCENT&lt;br&gt;PRICE_DISCOUNT&lt;br&gt;MAXED_DISCOUNT&lt;br&gt;EXPIRE_DATE&lt;br&gt;" style="text;html=1;align=left;verticalAlign=middle;resizable=0;points=[];autosize=1;strokeColor=none;fillColor=none;" vertex="1" parent="YgXdw1BSDBlJb3hZt-lw-25">
          <mxGeometry y="30" width="150" height="100" as="geometry" />
        </mxCell>
        <mxCell id="YgXdw1BSDBlJb3hZt-lw-27" value="VOUCHER_HISTORY" style="swimlane;whiteSpace=wrap;html=1;" vertex="1" parent="1">
          <mxGeometry x="225" y="400" width="200" height="200" as="geometry" />
        </mxCell>
        <mxCell id="YgXdw1BSDBlJb3hZt-lw-28" value="ID&lt;br&gt;VOUCHER_ID&lt;br&gt;USER_ID&lt;br&gt;INVOICE_ID&lt;br&gt;USE_DATE" style="text;html=1;align=left;verticalAlign=middle;resizable=0;points=[];autosize=1;strokeColor=none;fillColor=none;" vertex="1" parent="YgXdw1BSDBlJb3hZt-lw-27">
          <mxGeometry y="35" width="100" height="90" as="geometry" />
        </mxCell>
        <mxCell id="YgXdw1BSDBlJb3hZt-lw-44" style="edgeStyle=orthogonalEdgeStyle;rounded=0;orthogonalLoop=1;jettySize=auto;html=1;entryX=0.5;entryY=0;entryDx=0;entryDy=0;endArrow=baseDash;endFill=0;" edge="1" parent="1" source="YgXdw1BSDBlJb3hZt-lw-31" target="YgXdw1BSDBlJb3hZt-lw-33">
          <mxGeometry relative="1" as="geometry" />
        </mxCell>
        <mxCell id="YgXdw1BSDBlJb3hZt-lw-31" value="INVOICE" style="swimlane;whiteSpace=wrap;html=1;" vertex="1" parent="1">
          <mxGeometry x="550" y="460" width="200" height="200" as="geometry" />
        </mxCell>
        <mxCell id="YgXdw1BSDBlJb3hZt-lw-32" value="ID&lt;br&gt;CART_ID&lt;br&gt;VOUNCER_ID&lt;br&gt;FINAL_PRICE&lt;br&gt;DISCOUNT&lt;br&gt;NET_PRICE&lt;br&gt;PAYMENT_TYPE&lt;br&gt;PAYMENT_STATUS" style="text;html=1;align=left;verticalAlign=middle;resizable=0;points=[];autosize=1;strokeColor=none;fillColor=none;" vertex="1" parent="YgXdw1BSDBlJb3hZt-lw-31">
          <mxGeometry y="18" width="130" height="130" as="geometry" />
        </mxCell>
        <mxCell id="YgXdw1BSDBlJb3hZt-lw-63" style="edgeStyle=orthogonalEdgeStyle;rounded=0;orthogonalLoop=1;jettySize=auto;html=1;entryX=1;entryY=0.75;entryDx=0;entryDy=0;endArrow=baseDash;endFill=0;" edge="1" parent="1" source="YgXdw1BSDBlJb3hZt-lw-33" target="YgXdw1BSDBlJb3hZt-lw-55">
          <mxGeometry relative="1" as="geometry">
            <Array as="points">
              <mxPoint x="650" y="1020" />
            </Array>
          </mxGeometry>
        </mxCell>
        <mxCell id="YgXdw1BSDBlJb3hZt-lw-33" value="RECEIPT" style="swimlane;whiteSpace=wrap;html=1;" vertex="1" parent="1">
          <mxGeometry x="550" y="710" width="200" height="200" as="geometry" />
        </mxCell>
        <mxCell id="YgXdw1BSDBlJb3hZt-lw-34" value="ID&lt;br&gt;INVOICE_ID&lt;br&gt;PRICE&lt;br&gt;TAX" style="text;html=1;align=left;verticalAlign=middle;resizable=0;points=[];autosize=1;strokeColor=none;fillColor=none;" vertex="1" parent="YgXdw1BSDBlJb3hZt-lw-33">
          <mxGeometry y="45" width="90" height="70" as="geometry" />
        </mxCell>
        <mxCell id="YgXdw1BSDBlJb3hZt-lw-37" style="edgeStyle=orthogonalEdgeStyle;rounded=0;orthogonalLoop=1;jettySize=auto;html=1;entryX=0.75;entryY=1;entryDx=0;entryDy=0;endArrow=ERmany;endFill=0;" edge="1" parent="1" source="YgXdw1BSDBlJb3hZt-lw-34" target="YgXdw1BSDBlJb3hZt-lw-27">
          <mxGeometry relative="1" as="geometry" />
        </mxCell>
        <mxCell id="YgXdw1BSDBlJb3hZt-lw-55" value="SHIPPING" style="swimlane;whiteSpace=wrap;html=1;" vertex="1" parent="1">
          <mxGeometry x="225" y="870" width="200" height="200" as="geometry" />
        </mxCell>
        <mxCell id="YgXdw1BSDBlJb3hZt-lw-56" value="ID&lt;br&gt;RECEIPT_ID&lt;br&gt;ADDRESS_ID&lt;br&gt;STATUS" style="text;html=1;align=left;verticalAlign=middle;resizable=0;points=[];autosize=1;strokeColor=none;fillColor=none;" vertex="1" parent="YgXdw1BSDBlJb3hZt-lw-55">
          <mxGeometry y="45" width="100" height="70" as="geometry" />
        </mxCell>
        <mxCell id="YgXdw1BSDBlJb3hZt-lw-62" value="*" style="edgeStyle=orthogonalEdgeStyle;rounded=0;orthogonalLoop=1;jettySize=auto;html=1;entryX=0;entryY=0.75;entryDx=0;entryDy=0;endArrow=ERmany;endFill=0;" edge="1" parent="1" source="YgXdw1BSDBlJb3hZt-lw-59" target="YgXdw1BSDBlJb3hZt-lw-55">
          <mxGeometry relative="1" as="geometry">
            <Array as="points">
              <mxPoint x="60" y="1020" />
            </Array>
          </mxGeometry>
        </mxCell>
        <mxCell id="YgXdw1BSDBlJb3hZt-lw-59" value="ADDRESS" style="swimlane;whiteSpace=wrap;html=1;" vertex="1" parent="1">
          <mxGeometry x="5" y="300" width="200" height="200" as="geometry" />
        </mxCell>
        <mxCell id="YgXdw1BSDBlJb3hZt-lw-60" value="ID&lt;br&gt;USER_ID&lt;br&gt;HOUSE_NO&lt;br&gt;ROAD&lt;br&gt;DISTRICT&lt;br&gt;จังหวัด&lt;br&gt;MAIL_ADDRESS" style="text;html=1;align=left;verticalAlign=middle;resizable=0;points=[];autosize=1;strokeColor=none;fillColor=none;" vertex="1" parent="YgXdw1BSDBlJb3hZt-lw-59">
          <mxGeometry x="15" y="30" width="120" height="110" as="geometry" />
        </mxCell>
      </root>
    </mxGraphModel>
  </diagram>
</mxfile>
